<svg id="svg-icon-phone-circle" viewBox="0 0 24 24" xmlns="http://www.w3.org/2000/svg">
  <circle cx="12" cy="12" r="12" fill="#d3d0d0"/>
  <path d="M16.7743 13.758C16.2683 13.2585 15.6366 13.2585 15.1339 13.758C14.7504 14.1383 14.3669 14.5186 13.9898 14.9053C13.8867 15.0116 13.7997 15.0342 13.674 14.9633C13.4258 14.8279 13.1616 14.7184 12.9231 14.5701C11.8112 13.8708 10.8799 12.9717 10.0548 11.9598C9.64554 11.457 9.28137 10.9188 9.02678 10.313C8.97521 10.1905 8.98488 10.1099 9.08478 10.01C9.46829 9.63943 9.84213 9.25916 10.2192 8.87888C10.7445 8.35037 10.7445 7.73161 10.216 7.19987C9.91626 6.89694 9.61654 6.60046 9.31682 6.29753C9.00744 5.98815 8.70128 5.67555 8.38867 5.3694C7.8827 4.87633 7.25104 4.87633 6.74829 5.37262C6.36156 5.7529 5.99094 6.14284 5.59776 6.51667C5.23359 6.86149 5.0499 7.28366 5.01122 7.77673C4.94999 8.57918 5.14658 9.3365 5.42374 10.0745C5.99094 11.602 6.85464 12.9588 7.90203 14.2027C9.31682 15.885 11.0055 17.2159 12.9811 18.1763C13.8706 18.6081 14.7923 18.94 15.7946 18.9948C16.4842 19.0335 17.0837 18.8595 17.5639 18.3213C17.8926 17.9539 18.2632 17.6188 18.6112 17.2675C19.1269 16.7454 19.1301 16.1138 18.6177 15.5981C18.0054 14.9826 17.3898 14.3703 16.7743 13.758Z" fill="#fbfbfb"/>
</svg>
